<?xml version="1.0" standalone="no"?>
<!DOCTYPE svg PUBLIC "-//W3C//DTD SVG 20010904//EN"
 "http://www.w3.org/TR/2001/REC-SVG-20010904/DTD/svg10.dtd">
<svg version="1.0" xmlns="http://www.w3.org/2000/svg"
 width="1027.000000pt" height="317.000000pt" viewBox="0 0 1027.000000 317.000000"
 preserveAspectRatio="xMidYMid meet">

<g transform="translate(0.000000,317.000000) scale(0.100000,-0.100000)"
fill="#000000" stroke="none">
<path d="M3370 1580 c0 -962 2 -1090 15 -1090 13 0 15 128 15 1090 0 962 -2
1090 -15 1090 -13 0 -15 -128 -15 -1090z"/>
<path d="M9232 2225 c-53 -23 -62 -59 -62 -249 l0 -165 -51 35 c-74 50 -144
67 -248 62 -69 -4 -98 -10 -144 -33 -311 -154 -327 -674 -26 -853 127 -76 316
-64 431 29 l38 30 14 -34 c46 -111 176 -81 191 44 3 30 5 284 3 564 -3 559 -2
545 -63 571 -41 17 -42 17 -83 -1z m-191 -522 c122 -63 176 -234 120 -384 -23
-61 -73 -119 -124 -145 -17 -9 -59 -19 -94 -22 -53 -4 -70 -1 -117 22 -103 51
-150 133 -150 267 0 73 4 93 27 142 31 62 94 122 142 136 64 19 138 13 196
-16z"/>
<path d="M2602 2180 c-33 -36 -81 -141 -102 -224 -27 -109 -28 -279 0 -367 16
-54 25 -67 54 -83 29 -15 34 -23 31 -45 -3 -14 -11 -141 -20 -281 -8 -140 -18
-272 -20 -293 -4 -31 -1 -42 19 -62 34 -34 88 -34 122 0 24 24 24 26 18 142
-3 65 -18 367 -33 672 -18 391 -29 555 -38 558 -6 2 -20 -5 -31 -17z"/>
<path d="M4323 2155 c-18 -8 -37 -24 -43 -37 -13 -31 -60 -397 -60 -470 0 -49
4 -63 24 -83 13 -13 40 -27 60 -30 37 -7 49 -4 151 39 80 34 145 34 214 0 70
-35 103 -86 109 -165 6 -77 -17 -136 -70 -184 -58 -53 -112 -75 -185 -75 -51
0 -72 6 -127 35 -77 40 -112 44 -151 13 -25 -19 -27 -26 -22 -72 4 -43 10 -55
42 -83 69 -59 207 -91 321 -73 151 23 295 124 356 248 31 62 33 73 33 172 0
95 -3 111 -29 167 -35 77 -113 154 -193 191 -80 36 -203 42 -285 15 l-58 -20
0 23 c0 40 21 178 30 202 10 22 11 22 234 22 123 0 232 3 241 6 20 8 45 56 45
88 0 14 -11 38 -24 53 l-24 28 -279 2 c-224 2 -284 0 -310 -12z"/>
<path d="M5304 2161 c-12 -5 -31 -22 -43 -37 l-22 -27 3 -535 3 -534 28 -24
c51 -44 135 -28 166 33 7 14 11 96 11 227 l0 206 275 0 275 0 0 -199 c0 -119
4 -211 11 -230 23 -65 119 -83 170 -32 l29 29 0 534 c0 584 2 562 -59 588 -41
17 -92 6 -122 -26 -24 -25 -24 -29 -27 -245 l-3 -219 -274 0 -274 0 -3 220 -3
220 -26 25 c-27 28 -82 40 -115 26z"/>
<path d="M997 2023 c-4 -3 -7 -89 -7 -189 l0 -183 38 -30 37 -30 -25 -376 -24
-377 24 -19 c34 -25 83 -24 115 4 l26 22 -26 374 c-24 349 -25 375 -9 384 53
30 54 34 54 238 0 176 -1 190 -17 187 -16 -3 -18 -19 -21 -136 -2 -121 -4
-132 -21 -132 -27 0 -31 18 -31 151 0 99 -3 119 -15 119 -13 0 -15 -21 -15
-128 0 -132 -8 -164 -37 -141 -9 9 -13 46 -13 140 0 101 -3 129 -13 129 -8 0
-17 -3 -20 -7z"/>
<path d="M1730 1979 c-116 -20 -264 -110 -343 -207 -90 -110 -144 -275 -134
-411 16 -245 179 -457 408 -532 105 -34 263 -34 368 0 246 81 411 308 411 566
0 256 -165 483 -410 565 -75 25 -216 34 -300 19z m235 -114 c124 -33 242 -123
308 -235 75 -130 75 -340 0 -470 -49 -83 -130 -158 -222 -203 l-85 -42 -120 0
c-118 1 -123 2 -199 37 -311 147 -384 545 -143 783 98 97 206 143 336 144 36
1 92 -6 125 -14z"/>
<path d="M1741 1824 c-75 -20 -164 -70 -213 -118 -89 -89 -140 -251 -119 -380
43 -266 309 -435 564 -356 274 85 394 379 262 641 -85 166 -309 263 -494 213z"/>
<path d="M6709 1887 c-182 -63 -287 -217 -297 -433 -4 -108 9 -178 50 -258 29
-56 103 -131 163 -166 150 -86 388 -77 531 21 50 34 68 75 52 119 -20 60 -80
66 -165 18 -49 -28 -69 -33 -143 -36 -71 -4 -95 -1 -131 15 -61 27 -113 75
-138 127 -40 81 -58 76 274 76 326 0 341 3 365 59 9 24 10 45 1 98 -25 149
-126 283 -258 345 -93 44 -207 50 -304 15z m219 -173 c68 -28 132 -105 132
-159 l0 -25 -225 0 c-253 0 -243 -4 -206 75 24 51 68 93 117 110 52 19 136 18
182 -1z"/>
<path d="M7757 1900 c-103 -18 -201 -83 -261 -175 -100 -150 -112 -364 -30
-527 34 -67 111 -148 171 -180 137 -73 310 -60 425 33 l38 30 14 -34 c42 -101
165 -85 187 23 5 25 6 206 2 410 -7 401 -6 400 -68 420 -51 17 -102 -8 -122
-59 l-16 -40 -45 31 c-87 60 -196 85 -295 68z m210 -201 c83 -40 134 -127 141
-240 8 -132 -43 -235 -140 -283 -60 -30 -147 -35 -202 -12 -50 21 -105 74
-133 130 -37 70 -39 196 -5 271 29 62 75 112 127 136 56 26 156 25 212 -2z"/>
</g>
</svg>
